<svg id="Layer_1" data-name="Layer 1" xmlns="http://www.w3.org/2000/svg" viewBox="0 0 985 1390.14"><defs><style>.cls-1{fill:#fff;}.cls-2{fill:#ed1c24;}</style></defs><path class="cls-1" d="M1005.1,176.63c-10,24-28.33,69.15-41.26,100.43-12.69,31.06-45.79,111.77-73.45,179.11-47.61,116.07-76.86,187.72-119,290.19-10.2,24.94-31.28,75.95-46.47,113.36-15.42,37.41-39.91,97-54.41,132.62-14.74,35.6-51.92,126.28-82.76,201.55L531.5,1330.6,555.08,1354l23.58,23.13,222.86-98.4,222.63-98.39,93.63,41.26c159.83,70.51,300.85,132.63,327.15,144.42l25.16,11.11,24.26-23.81c15.87-15.64,23.35-24.71,22-26.3-1.13-1.36-33.78-80-72.77-174.79-38.77-94.77-83.21-202.91-98.62-240.32s-49-119.48-74.82-182.5-60.08-146.23-76-184.77c-15.87-38.77-60.3-147.14-98.84-241-38.55-93.63-70.51-170.49-71.19-170.49S1014.85,152.83,1005.1,176.63Z" transform="translate(-531.5 -133.1)"/><path class="cls-2" d="M1010.57,670.13c-7.09,17.08-20.14,49.14-29.32,71.37-9,22.08-32.55,79.43-52.2,127.29-33.84,82.49-54.62,133.4-84.59,206.22-7.25,17.73-22.23,54-33,80.56s-28.35,69-38.67,94.26-36.89,89.74-58.8,143.23l-40,97.15,16.76,16.6,16.75,16.43,158.38-69.92,158.22-69.93,66.54,29.32c113.58,50.11,213.8,94.26,232.49,102.63l17.88,7.9,17.24-16.92c11.28-11.11,16.6-17.56,15.63-18.69-.81-1-24-56.87-51.72-124.22-27.55-67.34-59.13-144.2-70.09-170.78s-34.8-84.91-53.16-129.7-42.7-103.92-54-131.31c-11.28-27.55-42.85-104.56-70.24-171.27-27.39-66.54-50.11-121.15-50.59-121.15S1017.5,653.21,1010.57,670.13Z" transform="translate(-531.5 -133.1)"/></svg>